<?xml version="1.0" standalone="no"?><!DOCTYPE svg PUBLIC "-//W3C//DTD SVG 1.1//EN" "http://www.w3.org/Graphics/SVG/1.1/DTD/svg11.dtd"><svg t="1715132940816" class="icon" viewBox="0 0 1024 1024" version="1.1" xmlns="http://www.w3.org/2000/svg" p-id="1030" xmlns:xlink="http://www.w3.org/1999/xlink" width="200" height="200"><path d="M512 868.7616a300.373333 300.373333 0 1 1 300.373333-300.373333 300.714667 300.714667 0 0 1-300.373333 300.373333z m0-546.133333a245.76 245.76 0 1 0 245.76 245.76 245.76 245.76 0 0 0-245.76-245.76z" fill="#333333" p-id="1031"></path><path d="M291.498667 434.722133h-1.501867a27.306667 27.306667 0 0 1-22.186667-13.653333L175.7184 261.5296a27.306667 27.306667 0 0 1 10.0352-37.2736l106.359467-61.44a27.306667 27.306667 0 0 1 37.341866 9.966933l80.554667 139.537067a27.306667 27.306667 0 0 1-11.0592 37.888A247.466667 247.466667 0 0 0 313.5488 423.253333a27.306667 27.306667 0 0 1-22.050133 11.4688z m-54.613334-176.878933l59.050667 102.4a302.830933 302.830933 0 0 1 53.384533-44.032l-53.521066-92.501333zM732.501333 434.722133a27.306667 27.306667 0 0 1-22.050133-11.4688 246.852267 246.852267 0 0 0-85.4016-73.045333 27.306667 27.306667 0 0 1-13.653333-16.5888 27.306667 27.306667 0 0 1 2.525866-21.2992l80.554667-139.537067a27.306667 27.306667 0 0 1 37.341867-9.966933l106.359466 61.44a27.306667 27.306667 0 0 1 10.0352 37.2736l-92.023466 159.5392a27.306667 27.306667 0 0 1-22.186667 13.653333zM674.884267 316.074667a302.830933 302.830933 0 0 1 53.384533 44.032l59.050667-102.4-59.118934-34.133334z" fill="#333333" p-id="1032"></path><path d="M713.386667 213.742933h-402.773334a27.306667 27.306667 0 0 1 0-54.613333h402.773334a27.306667 27.306667 0 0 1 0 54.613333z" fill="#333333" p-id="1033"></path><path d="M512 445.508267l40.072533 80.896L641.706667 539.374933l-64.853334 63.010134 15.291734 88.8832L512 649.284267l-80.145067 41.984 15.291734-88.8832-64.853334-63.010134 89.634134-12.970666L512 445.508267z" fill="#1990FF" p-id="1034"></path><path d="M592.145067 704.9216a12.970667 12.970667 0 0 1-6.280534-1.570133L512 664.712533 438.203733 703.146667a13.653333 13.653333 0 0 1-14.404266-1.024 13.653333 13.653333 0 0 1-5.393067-13.653334l14.062933-81.92-59.665066-57.9584a13.653333 13.653333 0 0 1 7.509333-22.9376l82.5344-11.741866 36.932267-74.478934A13.653333 13.653333 0 0 1 512 431.854933a13.653333 13.653333 0 0 1 12.219733 7.5776l36.932267 74.478934L643.6864 525.653333a13.653333 13.653333 0 0 1 7.509333 23.3472l-59.665066 57.9584 14.062933 81.92a13.653333 13.653333 0 0 1-5.393067 13.653334 13.653333 13.653333 0 0 1-8.055466 2.389333zM512 635.630933a13.653333 13.653333 0 0 1 6.3488 1.570134l55.7056 29.149866-10.6496-61.44a13.653333 13.653333 0 0 1 3.959467-12.151466l44.919466-43.6224-62.190933-9.0112a13.653333 13.653333 0 0 1-10.24-7.645867L512 476.296533 484.1472 532.48a13.653333 13.653333 0 0 1-10.24 7.441067l-62.190933 9.0112 44.919466 43.6224a13.653333 13.653333 0 0 1 3.959467 12.151466l-10.581333 61.44 55.637333-29.149866a13.653333 13.653333 0 0 1 6.3488-1.365334zM399.5648 748.817067a13.653333 13.653333 0 0 1-7.645867-2.321067 214.6304 214.6304 0 0 1-94.685866-178.107733 13.653333 13.653333 0 0 1 27.306666 0A187.392 187.392 0 0 0 407.210667 723.626667a13.653333 13.653333 0 0 1-7.645867 24.9856z" fill="#333333" p-id="1035"></path><path d="M311.9104 527.837867m-13.653333 0a13.653333 13.653333 0 1 0 27.306666 0 13.653333 13.653333 0 1 0-27.306666 0Z" fill="#333333" p-id="1036"></path></svg>